HIERARCHY
ROOT Hips
{
	OFFSET 0.00000 0.00000 0.00000
	CHANNELS 6 Xposition Yposition Zposition Yrotation Zrotation Xrotation 
	JOINT Lumbar
	{
		OFFSET 0 0 0
		CHANNELS 3 Zrotation Xrotation Yrotation
		JOINT Neck
		{
			OFFSET 0.00 0.2701 0.00
			CHANNELS 3 Zrotation Xrotation Yrotation
			End Site
			{
				OFFSET 0.00 0.1379 0.00
			}
		}
		JOINT RightShoulder
		{
			OFFSET 0.0119 0.2289 0.1181
			CHANNELS 3 Zrotation Xrotation Yrotation
			JOINT RightElbow
			{
				OFFSET 0.00 -0.1475 0.00
				CHANNELS 2 Zrotation Yrotation
				JOINT RightWrist
				{
					OFFSET 0.00 -0.1605 0.00
					CHANNELS 2 Zrotation Xrotation
					End Site
					{
						OFFSET 0.0040 -0.1068 0.0006
					}
				}
			}
		}
		JOINT LeftShoulder
		{
			OFFSET 0.0119 0.2289 -0.1181
			CHANNELS 3 Zrotation Xrotation Yrotation
			JOINT LeftElbow
			{
				OFFSET 0.00 -0.1475 0.00
				CHANNELS 2 Zrotation Yrotation
				JOINT LeftWrist
				{
					OFFSET 0.00 -0.1605 0.00
					CHANNELS 2 Zrotation Xrotation
					End Site
					{
						OFFSET 0.0040 -0.1068 -0.0006
					}
				}
			}
		}
	}
	JOINT RightHip
	{
		OFFSET 0.0316 -0.0424 0.0458
		CHANNELS 3 Zrotation Xrotation Yrotation
		JOINT RightKnee
		{
			OFFSET 0.00 -0.2438 0.00
			CHANNELS 1 Zrotation
			JOINT RightAnkle
			{
				OFFSET 0.00 -0.2449 0.00
				CHANNELS 3 Zrotation Xrotation Yrotation
				End Site
				{
					OFFSET 0.1237 -0.0542 0.0051
				}
			}
		}
	}
	JOINT LeftHip
	{
		OFFSET 0.0316 -0.0424 -0.0458
		CHANNELS 3 Zrotation Xrotation Yrotation
		JOINT LeftKnee
		{
			OFFSET 0.00 -0.2438 0.00
			CHANNELS 1 Zrotation
			JOINT LeftAnkle
			{
				OFFSET 0.00 -0.2449 0.00
				CHANNELS 3 Zrotation Xrotation Yrotation
				End Site
				{
					OFFSET 0.1237 -0.0542 -0.0051
				}
			}
		}
	}
}
MOTION
Frames: 34
Frame Time: 0.02
1e-05 2e-05 5e-05 22.82307 -22.41924 -7.34134 42.09408 2.78201 -3.65166 -11.07229 -2.32897 -0.36955 87.48314 -99.41628 64.16951 5.77949 102.6829 9.69908 2.19381 35.60817 109.64087 -64.17398 9.71562 -86.83915 6.14641 1.72277 37.45578 -2.49945 -3.69648 -22.27126 -6.94052 -3.63443 -2.52345 40.99575 8.57171 -0.57832 -27.76168 -6.66944 3.54968 2.49675
-2e-05 2e-05 4e-05 22.83554 -22.4187 -7.33908 42.08103 2.78793 -3.64683 -11.07329 -2.32851 -0.36959 87.55611 -99.37395 64.1695 5.76118 102.69903 9.67966 2.18912 35.68911 109.59131 -64.17315 9.71801 -86.83494 6.1428 1.70709 37.4581 -2.51649 -3.74471 -22.27566 -6.93845 -3.62806 -2.52221 41.0018 8.57497 -0.52924 -27.76377 -6.66871 3.54747 2.49493
-5e-05 1e-05 2e-05 22.84799 -22.41816 -7.33683 42.068 2.79382 -3.64202 -11.07429 -2.32805 -0.36963 87.62891 -99.33175 64.1695 5.74293 102.71513 9.66029 2.18444 35.76981 109.54188 -64.17233 9.72041 -86.83074 6.13917 1.69145 37.46041 -2.53349 -3.79284 -22.28004 -6.93638 -3.6217 -2.52097 41.00784 8.57822 -0.48029 -27.76586 -6.66799 3.54525 2.49311
-8e-05 -0 1e-05 22.86042 -22.41762 -7.33458 42.05497 2.79973 -3.6372 -11.07529 -2.3276 -0.36967 87.70166 -99.28955 64.16949 5.72467 102.73122 9.64093 2.17977 35.85051 109.49246 -64.1715 9.7228 -86.82654 6.13557 1.67581 37.46272 -2.55048 -3.84093 -22.28442 -6.9343 -3.61535 -2.51973 41.01388 8.58147 -0.43136 -27.76794 -6.66726 3.54304 2.49129
-0.00012 -1e-05 -1e-05 22.87285 -22.41707 -7.33232 42.04193 2.80565 -3.63237 -11.07628 -2.32715 -0.36971 87.77456 -99.24722 64.16949 5.70635 102.74731 9.62153 2.17508 35.93145 109.44293 -64.17067 9.72517 -86.82234 6.132 1.66014 37.46504 -2.56751 -3.88911 -22.28881 -6.93223 -3.60898 -2.5185 41.01992 8.58472 -0.3823 -27.77003 -6.66654 3.54084 2.48948
-0.00015 -2e-05 -2e-05 22.88533 -22.41656 -7.3301 42.02893 2.81149 -3.62759 -11.07731 -2.32667 -0.36975 87.84716 -99.20528 64.16948 5.68824 102.76344 9.60223 2.17043 36.01165 109.39371 -64.16985 9.72764 -86.81814 6.12825 1.64457 37.46734 -2.58443 -3.93712 -22.29318 -6.93016 -3.60262 -2.51725 41.02596 8.58799 -0.33358 -27.77211 -6.66581 3.5386 2.48764
-0.00018 -3e-05 -4e-05 22.89772 -22.41597 -7.32779 42.01586 2.81749 -3.62272 -11.07827 -2.32625 -0.36979 87.92023 -99.16261 64.16948 5.66974 102.77948 9.58275 2.1657 36.09324 109.34392 -64.169 9.72989 -86.81393 6.12488 1.62881 37.46966 -2.60156 -3.98542 -22.29758 -6.92809 -3.59627 -2.51603 41.03198 8.59122 -0.28426 -27.77421 -6.6651 3.53644 2.48585
-0.00021 -3e-05 -6e-05 22.91018 -22.41546 -7.32557 42.00285 2.82335 -3.61792 -11.07929 -2.32577 -0.36983 87.99297 -99.12061 64.16948 5.65158 102.79558 9.56342 2.16105 36.17355 109.29465 -64.16818 9.73237 -86.80974 6.12111 1.61322 37.47198 -2.6185 -4.03344 -22.30196 -6.92602 -3.58991 -2.51478 41.03804 8.59449 -0.23545 -27.77629 -6.66437 3.5342 2.48402
-0.00024 -4e-05 -7e-05 22.92276 -22.41501 -7.32345 41.98991 2.82903 -3.61324 -11.08039 -2.32523 -0.36987 88.06497 -99.07942 64.16947 5.6339 102.81188 9.54433 2.15646 36.25232 109.24602 -64.16741 9.73502 -86.80555 6.11707 1.59785 37.47425 -2.63518 -4.08119 -22.30631 -6.92394 -3.58353 -2.51349 41.0441 8.59779 -0.18737 -27.77835 -6.66361 3.53188 2.48213
-0.00028 -5e-05 -9e-05 22.93475 -22.41411 -7.32074 41.97655 2.83572 -3.60798 -11.08105 -2.32507 -0.3699 88.14022 -99.03354 64.16947 5.61365 102.8274 9.52404 2.15141 36.34005 109.1937 -64.16641 9.73636 -86.8013 6.11521 1.58125 37.47667 -2.65329 -4.13072 -22.31081 -6.92189 -3.57722 -2.51243 41.05002 8.60086 -0.13541 -27.78053 -6.66298 3.53006 2.48055
-0.00031 -6e-05 -0.0001 22.9479 -22.41422 -7.31925 41.96409 2.84026 -3.60386 -11.0826 -2.32411 -0.36996 88.20921 -98.99756 64.16946 5.59872 102.84433 9.50617 2.14742 36.40881 109.14918 -64.16587 9.74068 -86.7972 6.10838 1.56725 37.47886 -2.6684 -4.17636 -22.31499 -6.91978 -3.5708 -2.51088 41.05631 8.60445 -0.09146 -27.78247 -6.6621 3.52718 2.47832
-0.00033 -6e-05 -7e-05 22.96503 -22.41673 -7.32129 41.95417 2.83908 -3.60383 -11.08686 -2.32075 -0.37008 88.25525 -98.9889 64.16946 5.5994 102.86696 9.49601 2.14574 36.42583 109.12616 -64.16664 9.75152 -86.79327 6.09078 1.56032 37.47967 -2.67529 -4.21233 -22.31818 -6.91748 -3.5639 -2.50789 41.06309 8.60921 -0.07129 -27.78356 -6.6605 3.52133 2.47423
-0.00034 -7e-05 -4e-05 22.98317 -22.42032 -7.32452 41.94514 2.8357 -3.60478 -11.09196 -2.31661 -0.37022 88.29564 -98.99015 64.16946 5.60529 102.89068 9.48814 2.14521 36.4239 109.11094 -64.16787 9.76569 -86.78952 6.06767 1.556 37.48038 -2.67921 -4.24422 -22.32104 -6.91513 -3.55693 -2.50442 41.07036 8.61452 -0.05887 -27.78443 -6.65864 3.51443 2.46949
-0.00036 -7e-05 -1e-05 23.00033 -22.42366 -7.32708 41.93569 2.83317 -3.60463 -11.09649 -2.31295 -0.37036 88.34292 -98.98671 64.16947 5.60804 102.91266 9.47846 2.14461 36.43028 109.09212 -64.16884 9.77938 -86.78584 6.04523 1.55054 37.48166 -2.68449 -4.27733 -22.32412 -6.91283 -3.55012 -2.50123 41.07779 8.61979 -0.04172 -27.78552 -6.6569 3.50803 2.46509
-0.00038 -8e-05 2e-05 23.01967 -22.42602 -7.33021 41.92634 2.83124 -3.60718 -11.10178 -2.30878 -0.37049 88.3737 -98.98399 64.16947 5.61381 102.93981 9.47183 2.14226 36.43733 109.07364 -64.17 9.78859 -86.78154 6.03052 1.54493 37.48079 -2.68962 -4.31311 -22.32699 -6.91039 -3.54279 -2.49775 41.08362 8.62432 -0.0296 -27.78613 -6.65514 3.50151 2.46051
-0.00039 -8e-05 5e-05 23.03471 -22.43065 -7.33243 41.91697 2.82761 -3.60441 -11.10573 -2.30548 -0.37064 88.4353 -98.98223 64.16947 5.61486 102.95657 9.45964 2.14366 36.43922 109.05619 -64.17088 9.8081 -86.77857 5.99839 1.54019 37.48429 -2.69445 -4.34238 -22.33013 -6.90824 -3.5365 -2.49476 41.09284 8.63036 -0.00897 -27.78768 -6.65337 3.49501 2.45614
-0.0004 -9e-05 8e-05 23.03772 -22.44137 -7.33183 41.9073 2.81905 -3.58612 -11.10538 -2.30485 -0.37085 88.60272 -98.9798 64.16946 5.59877 102.94331 9.42921 2.15662 36.42519 109.04068 -64.17082 9.85361 -86.77916 5.91935 1.53778 37.5005 -2.69837 -4.35443 -22.33465 -6.90689 -3.53327 -2.49332 41.11183 8.64163 0.03847 -27.79203 -6.65164 3.48877 2.45239
-0.00041 -0.0001 0.0001 23.03635 -22.4543 -7.33027 41.89752 2.809 -3.56254 -11.10372 -2.3051 -0.37109 88.798 -98.97818 64.16945 5.57829 102.91975 9.39349 2.17304 36.4077 109.0258 -64.17042 9.90971 -86.78109 5.82283 1.53606 37.52095 -2.70223 -4.36011 -22.33932 -6.90584 -3.53105 -2.49236 41.13407 8.65419 0.09456 -27.79731 -6.64992 3.48259 2.44888
-0.00042 -0.00011 0.00011 23.03693 -22.46618 -7.32919 41.88781 2.80018 -3.54176 -11.10292 -2.30496 -0.37131 88.96749 -98.97675 64.16945 5.5617 102.90164 9.36181 2.18692 36.3961 109.00994 -64.17025 9.96198 -86.7825 5.7346 1.53365 37.53907 -2.70664 -4.36888 -22.34355 -6.90467 -3.52824 -2.49113 41.15453 8.66537 0.1457 -27.80209 -6.64821 3.47643 2.44532
-0.00042 -0.00012 0.00015 23.03772 -22.47838 -7.32801 41.87819 2.78903 -3.51936 -11.10105 -2.30486 -0.37155 89.1911 -98.97326 64.16944 5.5373 102.88038 9.32354 2.20497 36.3661 108.9971 -64.16994 10.01009 -86.78363 5.64537 1.53291 37.559 -2.70876 -4.3767 -22.34938 -6.90341 -3.52597 -2.49012 41.17644 8.67986 0.20057 -27.80724 -6.64644 3.47006 2.44147
-0.00044 -0.00012 0.00014 23.037 -22.49028 -7.32676 41.8682 2.7823 -3.49904 -11.10104 -2.30477 -0.37175 89.31006 -98.97418 64.16943 5.52806 102.86316 9.29739 2.21509 36.37326 108.97824 -64.1696 10.0695 -86.78555 5.55334 1.52885 37.57603 -2.71567 -4.38504 -22.35189 -6.90243 -3.52284 -2.48876 41.19589 8.68781 0.25018 -27.81177 -6.64479 3.46414 2.43828
-0.00049 -0.00013 2e-05 23.03318 -22.50211 -7.32574 41.85858 2.78918 -3.486 -11.10693 -2.30553 -0.37183 89.12176 -98.98634 64.16945 5.56199 102.86019 9.3088 2.20281 36.48937 108.94076 -64.17019 10.15644 -86.79026 5.46474 1.51519 37.58554 -2.73561 -4.39614 -22.34544 -6.90209 -3.51694 -2.48625 41.2097 8.67681 0.28029 -27.81501 -6.64356 3.45975 2.43705
-0.00056 -0.00013 -0.00014 23.02787 -22.51344 -7.32465 41.84848 2.80041 -3.47516 -11.11467 -2.30608 -0.37187 88.8296 -99.00296 64.16946 5.61142 102.86152 9.33205 2.18231 36.64238 108.8975 -64.16985 10.25472 -86.79556 5.37268 1.49814 37.59187 -2.76036 -4.40788 -22.33563 -6.90202 -3.51019 -2.4834 41.22071 8.65928 0.30536 -27.8175 -6.64244 3.45578 2.43644
-0.00062 -0.00013 -0.00028 23.02332 -22.52396 -7.32342 41.83749 2.80897 -3.46322 -11.12123 -2.30604 -0.37194 88.59227 -99.01799 64.16949 5.65337 102.8605 9.34808 2.16544 36.77457 108.85807 -64.17027 10.34835 -86.79998 5.27772 1.4829 37.59842 -2.78308 -4.41978 -22.32719 -6.90186 -3.50395 -2.48073 41.23152 8.64507 0.33468 -27.81987 -6.64121 3.45144 2.43539
-0.00068 -0.00013 -0.00043 23.01864 -22.53838 -7.32281 41.83055 2.8203 -3.4517 -11.12907 -2.30892 -0.37198 88.32276 -99.03133 64.16949 5.69638 102.8608 9.37177 2.14936 36.92244 108.81362 -64.17229 10.43968 -86.80698 5.201 1.46684 37.60959 -2.80529 -4.43035 -22.31931 -6.90157 -3.49719 -2.47791 41.24803 8.6294 0.35609 -27.82406 -6.64023 3.44781 2.43499
-0.00075 -0.00013 -0.00058 23.01349 -22.5452 -7.32098 41.81584 2.82703 -3.43966 -11.13486 -2.30568 -0.37206 88.09643 -99.04909 64.16951 5.7417 102.85949 9.38225 2.12933 37.0481 108.77822 -64.16693 10.53906 -86.80881 5.08572 1.45131 37.61122 -2.8295 -4.44293 -22.30958 -6.90164 -3.49134 -2.47536 41.25275 8.61523 0.39258 -27.82446 -6.63877 3.44285 2.43341
-0.00081 -0.00013 -0.00076 23.0114 -22.52513 -7.31527 41.77287 2.81911 -3.42769 -11.13327 -2.28537 -0.37228 88.00293 -99.07924 64.16957 5.78357 102.85205 9.35472 2.10283 37.08957 108.76937 -64.17309 10.65189 -86.79548 4.86528 1.44146 37.57905 -2.86003 -4.46948 -22.29465 -6.90244 -3.48776 -2.47328 41.21823 8.60667 0.47308 -27.81291 -6.63597 3.43372 2.42818
-0.00088 -0.00012 -0.00094 23.00827 -22.49829 -7.30841 41.72312 2.80657 -3.41485 -11.12986 -2.25898 -0.37256 87.95753 -99.11346 64.16947 5.82887 102.84242 9.31338 2.07204 37.11022 108.76975 -64.16514 10.77364 -86.77705 4.60649 1.43168 37.53855 -2.89209 -4.49659 -22.27811 -6.90363 -3.48521 -2.47154 41.17297 8.5999 0.56883 -27.79783 -6.63269 3.42329 2.42178
-0.00095 -0.00012 -0.00113 23.00286 -22.47884 -7.30247 41.68135 2.79677 -3.40096 -11.12807 -2.2355 -0.37281 87.89898 -99.14497 64.16964 5.87592 102.83506 9.27731 2.04175 37.14923 108.76585 -64.14391 10.89502 -86.76147 4.36464 1.41959 37.50765 -2.92208 -4.51763 -22.26295 -6.90477 -3.48249 -2.46989 41.13786 8.59241 0.6566 -27.78551 -6.62966 3.41376 2.41611
-0.00102 -0.00011 -0.00131 23.00856 -22.44227 -7.29494 41.61998 2.78451 -3.39286 -11.1228 -2.21129 -0.37304 87.80417 -99.18021 64.16963 5.90748 102.82494 9.24533 2.01776 37.15112 108.7623 -64.20911 11.00066 -86.74373 4.12343 1.41681 37.4535 -2.95781 -4.56263 -22.24508 -6.90541 -3.47849 -2.4672 41.08176 8.58425 0.74798 -27.76848 -6.62654 3.40305 2.40969
-0.00108 -0.00011 -0.0015 22.99145 -22.43835 -7.29031 41.59648 2.77609 -3.37296 -11.12455 -2.18727 -0.37334 87.79249 -99.20868 64.16916 5.97451 102.81687 9.20211 1.97912 37.22592 108.76004 -64.08678 11.14182 -86.7292 3.87344 1.39495 37.44408 -2.98216 -4.55864 -22.23234 -6.90716 -3.47741 -2.46675 41.06518 8.57806 0.83637 -27.76019 -6.62346 3.39435 2.40445
-0.00113 -0.00012 -0.0017 22.90688 -22.53873 -7.29542 41.69128 2.78052 -3.3163 -11.14406 -2.16438 -0.37386 88.04357 -99.21624 64.1707 6.11638 102.84072 9.12631 1.90616 37.4981 108.76126 -63.4851 11.3726 -86.72522 3.59462 1.31822 37.5758 -2.9725 -4.41282 -22.23563 -6.91187 -3.48399 -2.47262 41.17534 8.57615 0.90506 -27.77909 -6.62086 3.39287 2.40352
-0.00118 -0.00012 -0.00191 22.80021 -22.67017 -7.30327 41.8225 2.78875 -3.24853 -11.17104 -2.14201 -0.37446 88.36901 -99.21676 64.16866 6.29789 102.86123 9.04145 1.81752 37.84566 108.76297 -62.68844 11.64009 -86.72455 3.31084 1.22276 37.75033 -2.95177 -4.2191 -22.24392 -6.91766 -3.49346 -2.48069 41.32325 8.57625 0.9713 -27.80656 -6.61828 3.39328 2.40372
-0.00122 -0.00013 -0.00212 22.70692 -22.77879 -7.3089 41.92873 2.79448 -3.1888 -11.19599 -2.12 -0.37502 88.63107 -99.22162 64.1694 6.47576 102.86721 8.96276 1.733 38.16473 108.76326 -61.95828 11.89461 -86.72207 3.03863 1.13721 37.89456 -2.9375 -4.05124 -22.2489 -6.92293 -3.50178 -2.48766 41.4436 8.57604 1.04419 -27.82864 -6.61553 3.3919 2.40286
